<?xml version="1.0" standalone="no"?>
<!DOCTYPE svg PUBLIC "-//W3C//DTD SVG 20010904//EN"
 "http://www.w3.org/TR/2001/REC-SVG-20010904/DTD/svg10.dtd">
<svg version="1.0" xmlns="http://www.w3.org/2000/svg"
 width="900.000000pt" height="435.000000pt" viewBox="0 0 900.000000 435.000000"
 preserveAspectRatio="xMidYMid meet">

<g transform="translate(0.000000,435.000000) scale(0.100000,-0.100000)"
fill="#000000" stroke="none">
<path d="M1215 3683 c-31 -98 -65 -203 -75 -233 -10 -30 -91 -287 -180 -570
-190 -605 -275 -874 -300 -950 -10 -30 -103 -323 -205 -650 -103 -327 -195
-622 -206 -654 -10 -33 -19 -61 -19 -63 0 -1 218 -3 484 -3 l483 0 11 42 c6
24 24 93 40 153 38 141 72 273 120 455 l37 145 482 3 482 2 39 -127 c22 -71
65 -211 96 -313 31 -102 68 -224 83 -272 l27 -88 511 0 512 0 -43 128 c-23 70
-169 503 -324 962 -546 1623 -602 1787 -672 1998 l-71 212 -628 0 -628 0 -56
-177z m684 -556 c18 -61 44 -150 58 -197 14 -47 47 -155 73 -240 26 -85 71
-234 100 -330 29 -96 63 -207 75 -247 12 -40 20 -75 17 -78 -9 -8 -670 -6
-676 3 -3 5 19 96 48 203 101 369 145 535 190 724 60 248 67 275 75 275 3 0
21 -51 40 -113z"/>
<path d="M3070 3485 l0 -375 465 0 465 0 0 -1270 0 -1270 460 0 460 0 0 1270
0 1270 473 2 472 3 3 373 2 372 -1400 0 -1400 0 0 -375z"/>
<path d="M5950 3485 l0 -375 465 0 465 0 -2 -1270 -3 -1270 463 0 462 0 0
1270 0 1270 473 2 472 3 3 373 2 372 -1400 0 -1400 0 0 -375z"/>
</g>
</svg>
